<?xml version="1.0" standalone="no"?>
<!DOCTYPE svg PUBLIC "-//W3C//DTD SVG 20010904//EN"
 "http://www.w3.org/TR/2001/REC-SVG-20010904/DTD/svg10.dtd">
<svg version="1.0" xmlns="http://www.w3.org/2000/svg"
 width="512.000000pt" height="512.000000pt" viewBox="0 0 512.000000 512.000000"
 preserveAspectRatio="xMidYMid meet">
<metadata>
Created by potrace 1.11, written by Peter Selinger 2001-2013
</metadata>
<g transform="translate(0.000000,512.000000) scale(0.100000,-0.100000)"
fill="#000000" stroke="none">
<path d="M653 5004 c-154 -33 -310 -131 -399 -250 -16 -21 -32 -41 -35 -44
-10 -8 -56 -100 -77 -155 -44 -113 -44 -100 -40 -2040 l3 -1850 22 -60 c64
-183 146 -292 291 -387 79 -53 124 -73 218 -98 66 -18 147 -19 1919 -19 1558
0 1859 2 1909 14 251 60 437 227 524 473 l27 77 2 1865 c2 1607 0 1874 -12
1933 -39 181 -151 343 -305 442 -79 50 -114 65 -241 103 -13 4 -861 7 -1884 8
-1542 2 -1871 0 -1922 -12z m3568 -337 c231 -66 393 -230 455 -458 16 -60 17
-176 18 -1674 0 -1795 5 -1658 -70 -1807 -31 -62 -38 -70 -45 -53 -5 11 -34
119 -64 240 -56 217 -145 545 -190 700 -13 44 -36 121 -50 170 -98 336 -295
927 -368 1105 -5 14 -11 30 -13 35 -7 29 -140 336 -179 414 -25 50 -45 93 -45
96 0 2 17 13 38 24 20 11 71 48 112 83 42 35 84 70 94 78 119 99 161 205 135
345 -29 161 -164 309 -321 351 -151 40 -286 -2 -373 -117 -22 -29 -53 -67 -68
-84 -58 -62 -117 -153 -133 -206 l-17 -56 -37 13 c-61 21 -190 53 -239 60 -25
3 -48 8 -51 9 -3 2 -36 6 -74 10 -141 15 -363 7 -481 -17 -27 -5 -62 -12 -77
-14 -24 -4 -132 -35 -179 -50 -12 -4 -20 7 -34 47 -20 63 -31 79 -148 224
-136 167 -201 203 -352 192 -216 -15 -400 -214 -400 -432 0 -70 20 -155 37
-155 4 0 8 -6 8 -13 0 -8 10 -25 23 -40 33 -38 237 -205 280 -229 39 -23 42
-43 11 -79 -8 -8 -14 -20 -14 -25 0 -5 -7 -22 -16 -39 -9 -16 -34 -70 -55
-120 -22 -49 -44 -99 -49 -110 -12 -27 -85 -212 -98 -250 -6 -16 -25 -68 -42
-115 -109 -293 -287 -858 -416 -1325 -64 -229 -181 -673 -189 -718 -4 -20 -11
-39 -15 -42 -23 -15 -113 183 -127 281 -5 34 -9 751 -8 1655 l2 1594 22 70
c74 231 268 402 502 443 24 5 764 7 1644 7 1441 -2 1606 -3 1656 -18z m-1542
-1654 c106 -75 239 -258 304 -418 l32 -80 0 -295 0 -295 -28 -57 c-36 -72 -86
-121 -167 -161 l-64 -32 -191 0 -190 0 -65 31 c-77 37 -131 89 -168 164 l-27
55 -2 282 c-3 281 -3 282 23 355 24 66 77 178 97 203 4 6 22 32 40 60 46 71
165 189 217 214 64 31 117 24 189 -26z m-574 -45 c15 -44 -25 -85 -71 -74 -51
13 -55 87 -6 104 33 11 69 -3 77 -30z m1034 6 c22 -50 -29 -101 -77 -75 -12 6
-24 21 -27 32 -21 64 76 104 104 43z"/>
<path d="M2507 2734 c-1 -1 -25 -4 -54 -7 -60 -6 -133 -46 -153 -82 -19 -36
-18 -202 2 -240 42 -80 183 -175 261 -175 88 0 243 115 268 199 6 21 10 76 8
123 -3 68 -8 91 -24 108 -32 36 -108 66 -172 69 -32 1 -75 3 -96 4 -21 1 -39
2 -40 1z"/>
</g>
</svg>
